<svg xmlns="http://www.w3.org/2000/svg" width="28" height="28" viewBox="0 0 28 28" fill="none">
  <path fill-rule="evenodd" clip-rule="evenodd" d="M13.1256 3.32294C15.1924 2.91938 16.6315 4.72682 16.5816 6.4718L16.1393 21.9532C16.0894 23.6982 14.5495 25.4205 12.5092 24.8996C7.60676 23.6484 4.0459 19.1353 4.19648 13.865C4.34705 8.59466 8.15977 4.29221 13.1256 3.32294ZM19.0132 10.1857C19.2265 9.98431 19.511 9.87588 19.8043 9.88426C20.0975 9.89264 20.3754 10.0171 20.5768 10.2304L23.7995 13.6426C24.0009 13.8559 24.1093 14.1404 24.1009 14.4337C24.0926 14.7269 23.9681 15.0048 23.7548 15.2062L20.3426 18.4289C20.1283 18.6244 19.8458 18.7278 19.5559 18.717C19.266 18.7062 18.992 18.582 18.7928 18.3711C18.5937 18.1602 18.4853 17.8796 18.4911 17.5896C18.4968 17.2995 18.6163 17.0234 18.8236 16.8206L20.2943 15.4316L10.7998 15.1604C10.5065 15.152 10.2286 15.0274 10.0271 14.8141C9.82565 14.6008 9.71718 14.3162 9.72556 14.0229C9.73394 13.7297 9.85848 13.4517 10.0718 13.2503C10.2851 13.0488 10.5697 12.9403 10.863 12.9487L20.3575 13.22L18.9685 11.7493C18.7672 11.536 18.6587 11.2515 18.6671 10.9583C18.6755 10.665 18.8 10.3871 19.0132 10.1857Z" fill="#898A8D"/>
</svg>