<svg xmlns="http://www.w3.org/2000/svg" width="31" height="31" viewBox="0 0 31 31" fill="none">
  <path d="M13.1827 4.56039C13.3695 4.09878 13.6898 3.70347 14.1027 3.42511C14.5156 3.14675 15.0022 2.99805 15.5002 2.99805C15.9981 2.99805 16.4848 3.14675 16.8977 3.42511C17.3106 3.70347 17.6309 4.09878 17.8177 4.56039C19.6661 5.06875 21.2966 6.16984 22.4586 7.69456C23.6207 9.21929 24.2501 11.0833 24.2502 13.0004V18.8716L26.5402 22.3066C26.6658 22.4949 26.7379 22.7137 26.7489 22.9397C26.7599 23.1658 26.7093 23.3906 26.6025 23.5901C26.4958 23.7896 26.3368 23.9564 26.1427 24.0727C25.9486 24.189 25.7265 24.2504 25.5002 24.2504H19.8314C19.6809 25.2918 19.1603 26.2441 18.3648 26.9328C17.5694 27.6216 16.5524 28.0007 15.5002 28.0007C14.448 28.0007 13.431 27.6216 12.6356 26.9328C11.8401 26.2441 11.3194 25.2918 11.1689 24.2504H5.50019C5.27388 24.2504 5.05182 24.189 4.85768 24.0727C4.66354 23.9564 4.50461 23.7896 4.39784 23.5901C4.29108 23.3906 4.24049 23.1658 4.25147 22.9397C4.26245 22.7137 4.33459 22.4949 4.46019 22.3066L6.75019 18.8716V13.0004C6.75019 8.97039 9.47519 5.57539 13.1827 4.56039ZM13.7327 24.2504C13.8618 24.6162 14.1012 24.933 14.4178 25.157C14.7345 25.3811 15.1129 25.5014 15.5008 25.5014C15.8887 25.5014 16.2671 25.3811 16.5838 25.157C16.9005 24.933 17.1398 24.6162 17.2689 24.2504H13.7314H13.7327ZM15.5002 6.75039C13.8426 6.75039 12.2529 7.40887 11.0808 8.58098C9.90867 9.75308 9.25019 11.3428 9.25019 13.0004V19.2504C9.25024 19.4973 9.17717 19.7387 9.04019 19.9441L7.83644 21.7504H23.1627L21.9589 19.9441C21.8224 19.7386 21.7498 19.4972 21.7502 19.2504V13.0004C21.7502 11.3428 21.0917 9.75308 19.9196 8.58098C18.7475 7.40887 17.1578 6.75039 15.5002 6.75039Z" fill="#898A8D"/>
  <!-- <circle cx="21.75" cy="8" r="4.375" fill="#FF0000" stroke="#EBEBEB" stroke-width="1.25"/> -->
</svg>