<svg xmlns="http://www.w3.org/2000/svg" width="16" height="16" viewBox="0 0 16 16" fill="none">
  <path opacity="0.4" d="M12.0754 -1.98828H15.4614C16.8636 -1.98828 17.9999 -0.842429 17.9999 0.571682V3.98624C17.9999 5.40036 16.8636 6.54621 15.4614 6.54621H12.0754C10.6731 6.54621 9.53687 5.40036 9.53687 3.98624V0.571682C9.53687 -0.842429 10.6731 -1.98828 12.0754 -1.98828Z" fill="#8A92A6" fill-opacity="0.5"/>
  <path fill-rule="evenodd" clip-rule="evenodd" d="M0.538524 -1.98828H3.92449C5.32676 -1.98828 6.46301 -0.842429 6.46301 0.571682V3.98624C6.46301 5.40036 5.32676 6.54621 3.92449 6.54621H0.538524C-0.863744 6.54621 -2 5.40036 -2 3.98624V0.571682C-2 -0.842429 -0.863744 -1.98828 0.538524 -1.98828ZM0.538524 9.47723H3.92449C5.32676 9.47723 6.46301 10.6231 6.46301 12.0372V15.4518C6.46301 16.8649 5.32676 18.0117 3.92449 18.0117H0.538524C-0.863744 18.0117 -2 16.8649 -2 15.4518V12.0372C-2 10.6231 -0.863744 9.47723 0.538524 9.47723ZM15.4615 9.47723H12.0755C10.6732 9.47723 9.53699 10.6231 9.53699 12.0372V15.4518C9.53699 16.8649 10.6732 18.0117 12.0755 18.0117H15.4615C16.8637 18.0117 18 16.8649 18 15.4518V12.0372C18 10.6231 16.8637 9.47723 15.4615 9.47723Z" fill="#8A92A6" fill-opacity="0.5"/>
</svg>