<svg width="16" height="15" viewBox="0 0 16 15" fill="none" xmlns="http://www.w3.org/2000/svg">
<g clip-path="url(#clip0_1628_2033)">
<path d="M8.16283 2.96736C8.11921 2.92563 8.06118 2.90234 8.00082 2.90234C7.94046 2.90234 7.88242 2.92563 7.8388 2.96736L2.44525 8.11979C2.42235 8.14171 2.40412 8.16804 2.39168 8.19719C2.37925 8.22635 2.37285 8.25773 2.37289 8.28942L2.37201 13.1252C2.37201 13.3738 2.47078 13.6123 2.6466 13.7881C2.82241 13.9639 3.06087 14.0627 3.30951 14.0627H6.12494C6.24926 14.0627 6.36849 14.0133 6.45639 13.9254C6.5443 13.8375 6.59369 13.7182 6.59369 13.5939V9.60954C6.59369 9.54738 6.61838 9.48777 6.66233 9.44381C6.70629 9.39986 6.7659 9.37517 6.82806 9.37517H9.17181C9.23397 9.37517 9.29359 9.39986 9.33754 9.44381C9.38149 9.48777 9.40619 9.54738 9.40619 9.60954V13.5939C9.40619 13.7182 9.45557 13.8375 9.54348 13.9254C9.63139 14.0133 9.75062 14.0627 9.87494 14.0627H12.6892C12.9378 14.0627 13.1763 13.9639 13.3521 13.7881C13.5279 13.6123 13.6267 13.3738 13.6267 13.1252V8.28942C13.6267 8.25773 13.6203 8.22635 13.6079 8.19719C13.5955 8.16804 13.5772 8.14171 13.5543 8.11979L8.16283 2.96736Z" fill="white"/>
<path d="M14.8824 7.15381L12.691 5.05732V1.87598C12.691 1.75166 12.6416 1.63243 12.5537 1.54452C12.4658 1.45661 12.3465 1.40723 12.2222 1.40723H10.816C10.6917 1.40723 10.5724 1.45661 10.4845 1.54452C10.3966 1.63243 10.3472 1.75166 10.3472 1.87598V2.81348L8.65035 1.19102C8.49156 1.03047 8.25543 0.938477 8.00025 0.938477C7.74596 0.938477 7.51041 1.03047 7.35162 1.19131L1.12018 7.15322C0.937951 7.329 0.915099 7.61816 1.08092 7.80859C1.12256 7.85666 1.17354 7.89575 1.23077 7.92349C1.288 7.95122 1.35027 7.96703 1.4138 7.96993C1.47733 7.97284 1.54079 7.96278 1.60031 7.94039C1.65983 7.91799 1.71417 7.88371 1.76002 7.83965L7.83912 2.03066C7.88274 1.98894 7.94077 1.96565 8.00113 1.96565C8.06149 1.96565 8.11953 1.98894 8.16314 2.03066L14.2428 7.83965C14.3324 7.92553 14.4523 7.9724 14.5764 7.96998C14.7005 7.96757 14.8185 7.91606 14.9046 7.82676C15.0845 7.64043 15.0696 7.33281 14.8824 7.15381Z" fill="white"/>
</g>
<defs>
<clipPath id="clip0_1628_2033">
<rect width="15" height="15" fill="white" transform="translate(0.499939)"/>
</clipPath>
</defs>
</svg>
