<svg xmlns="http://www.w3.org/2000/svg" width="15" height="15" viewBox="0 0 15 15" fill="none">
  <path d="M13.5 5H10.5C10.1023 5.0004 9.721 5.15856 9.43978 5.43978C9.15856 5.721 9.0004 6.1023 9 6.5V9.5C9.00027 9.76514 9.10571 10.0193 9.29319 10.2068C9.48066 10.3943 9.73487 10.4997 10 10.5V14C10.0003 14.2651 10.1057 14.5193 10.2932 14.7068C10.4807 14.8943 10.7349 14.9997 11 15H13C13.2651 14.9997 13.5193 14.8943 13.7068 14.7068C13.8943 14.5193 13.9997 14.2651 14 14V10.5C14.2651 10.4997 14.5193 10.3943 14.7068 10.2068C14.8943 10.0193 14.9997 9.76514 15 9.5V6.5C14.9996 6.1023 14.8414 5.721 14.5602 5.43978C14.279 5.15856 13.8977 5.0004 13.5 5ZM14 9.5H13V14H11V9.5H10V6.5C10 6.36739 10.0527 6.24022 10.1464 6.14645C10.2402 6.05268 10.3674 6 10.5 6H13.5C13.6326 6 13.7598 6.05268 13.8536 6.14645C13.9473 6.24022 14 6.36739 14 6.5V9.5ZM10 2.5C10 2.10444 10.1173 1.71776 10.3371 1.38886C10.5568 1.05996 10.8692 0.803617 11.2346 0.652242C11.6001 0.500867 12.0022 0.46126 12.3902 0.53843C12.7781 0.615601 13.1345 0.806082 13.4142 1.08579C13.6939 1.36549 13.8844 1.72186 13.9616 2.10982C14.0387 2.49778 13.9991 2.89992 13.8478 3.26537C13.6964 3.63082 13.44 3.94318 13.1111 4.16294C12.7822 4.3827 12.3956 4.5 12 4.5C11.4697 4.49947 10.9613 4.28859 10.5864 3.91363C10.2114 3.53867 10.0005 3.03027 10 2.5ZM11 2.5C11 2.69778 11.0586 2.89112 11.1685 3.05557C11.2784 3.22002 11.4346 3.34819 11.6173 3.42388C11.8 3.49957 12.0011 3.51937 12.1951 3.48079C12.3891 3.4422 12.5673 3.34696 12.7071 3.20711C12.847 3.06726 12.9422 2.88907 12.9808 2.69509C13.0194 2.50111 12.9996 2.30004 12.9239 2.11732C12.8482 1.93459 12.72 1.77841 12.5556 1.66853C12.3911 1.55865 12.1978 1.5 12 1.5C11.7349 1.50027 11.4807 1.60571 11.2932 1.79319C11.1057 1.98067 11.0003 2.23487 11 2.5ZM7 8V6.5C6.9996 6.1023 6.84144 5.721 6.56022 5.43978C6.279 5.15856 5.8977 5.0004 5.5 5H2.5C2.1023 5.0004 1.721 5.15856 1.43978 5.43978C1.15856 5.721 1.0004 6.1023 1 6.5V8H0V9H8V8H7ZM2 6.5C2 6.36739 2.05268 6.24022 2.14645 6.14645C2.24021 6.05268 2.36739 6 2.5 6H5.5C5.63261 6 5.75979 6.05268 5.85355 6.14645C5.94732 6.24022 6 6.36739 6 6.5V8H2V6.5ZM2 2.5C2 2.10444 2.1173 1.71776 2.33706 1.38886C2.55682 1.05996 2.86918 0.803617 3.23463 0.652242C3.60009 0.500867 4.00222 0.46126 4.39018 0.53843C4.77814 0.615601 5.13451 0.806082 5.41421 1.08579C5.69392 1.36549 5.8844 1.72186 5.96157 2.10982C6.03874 2.49778 5.99913 2.89992 5.84776 3.26537C5.69638 3.63082 5.44004 3.94318 5.11114 4.16294C4.78224 4.3827 4.39556 4.5 4 4.5C3.46973 4.49947 2.96133 4.28859 2.58637 3.91363C2.21141 3.53867 2.00053 3.03027 2 2.5ZM3 2.5C3 2.69778 3.05865 2.89112 3.16853 3.05557C3.27841 3.22002 3.43459 3.34819 3.61732 3.42388C3.80004 3.49957 4.00111 3.51937 4.19509 3.48079C4.38907 3.4422 4.56725 3.34696 4.70711 3.20711C4.84696 3.06726 4.9422 2.88907 4.98079 2.69509C5.01937 2.50111 4.99957 2.30004 4.92388 2.11732C4.84819 1.93459 4.72002 1.77841 4.55557 1.66853C4.39112 1.55865 4.19778 1.5 4 1.5C3.73486 1.50027 3.48066 1.60571 3.29319 1.79319C3.10571 1.98067 3.00026 2.23487 3 2.5Z" fill="#8A92A6"/>
</svg>