<svg width="15" height="15" viewBox="0 0 15 15" fill="none" xmlns="http://www.w3.org/2000/svg">
<path d="M5.15619 13.125C5.67396 13.125 6.09369 12.7053 6.09369 12.1875C6.09369 11.6697 5.67396 11.25 5.15619 11.25C4.63842 11.25 4.21869 11.6697 4.21869 12.1875C4.21869 12.7053 4.63842 13.125 5.15619 13.125Z" fill="#091F8E"/>
<path d="M11.7187 13.125C12.2365 13.125 12.6562 12.7053 12.6562 12.1875C12.6562 11.6697 12.2365 11.25 11.7187 11.25C11.2009 11.25 10.7812 11.6697 10.7812 12.1875C10.7812 12.7053 11.2009 13.125 11.7187 13.125Z" fill="#091F8E"/>
<path d="M13.3827 3.53848C13.3169 3.45792 13.2339 3.39305 13.1399 3.34855C13.0458 3.30406 12.943 3.28107 12.839 3.28125H3.9225L3.74291 2.2623C3.72376 2.15377 3.66698 2.05545 3.58254 1.98462C3.4981 1.91379 3.3914 1.87498 3.28119 1.875H1.40619C1.28187 1.875 1.16264 1.92439 1.07473 2.01229C0.986825 2.1002 0.937439 2.21943 0.937439 2.34375C0.937439 2.46807 0.986825 2.5873 1.07473 2.67521C1.16264 2.76311 1.28187 2.8125 1.40619 2.8125H2.88802L4.22572 10.3939C4.24487 10.5025 4.30165 10.6008 4.38609 10.6716C4.47053 10.7425 4.57722 10.7813 4.68744 10.7812H12.1874C12.3118 10.7812 12.431 10.7319 12.5189 10.644C12.6068 10.556 12.6562 10.4368 12.6562 10.3125C12.6562 10.1882 12.6068 10.0689 12.5189 9.98104C12.431 9.89313 12.3118 9.84375 12.1874 9.84375H5.0806L4.91537 8.90625H11.9952C12.1578 8.90604 12.3153 8.84968 12.4411 8.74669C12.5669 8.64371 12.6532 8.50043 12.6855 8.34111L13.5292 4.12236C13.5496 4.02026 13.547 3.91492 13.5216 3.81395C13.4963 3.71298 13.4489 3.61889 13.3827 3.53848Z" fill="#091F8E"/>
</svg>
