<svg width="16" height="15" viewBox="0 0 16 15" fill="none" xmlns="http://www.w3.org/2000/svg">
<path d="M14.2567 3.53136C14.223 3.46571 14.1742 3.40896 14.1144 3.36574C14.0545 3.32251 13.9853 3.29403 13.9124 3.2826C13.8395 3.27118 13.7649 3.27715 13.6947 3.30001C13.6245 3.32287 13.5607 3.36199 13.5085 3.41417L11.7085 5.21534C11.6201 5.30242 11.5011 5.35123 11.377 5.35123C11.253 5.35123 11.1339 5.30242 11.0455 5.21534L10.2674 4.43604C10.2239 4.39252 10.1893 4.34084 10.1658 4.28396C10.1422 4.22708 10.1301 4.16612 10.1301 4.10455C10.1301 4.04298 10.1422 3.98202 10.1658 3.92514C10.1893 3.86826 10.2239 3.81659 10.2674 3.77306L12.0598 1.98038C12.1135 1.92666 12.1534 1.86068 12.1759 1.78812C12.1985 1.71557 12.2031 1.63861 12.1893 1.56389C12.1755 1.48917 12.1438 1.41892 12.0968 1.35918C12.0499 1.29945 11.9891 1.25203 11.9197 1.22101C10.5659 0.615733 8.87608 0.931553 7.81056 1.98917C6.90528 2.888 6.63546 4.29249 7.07081 5.84259C7.09428 5.92525 7.09442 6.01279 7.0712 6.09553C7.04798 6.17826 7.00232 6.25296 6.93927 6.31134L2.06193 10.7659C1.87192 10.9365 1.71866 11.144 1.61149 11.3758C1.50433 11.6076 1.4455 11.8588 1.43861 12.1141C1.43172 12.3693 1.4769 12.6233 1.5714 12.8605C1.6659 13.0978 1.80774 13.3132 1.98827 13.4938C2.16879 13.6745 2.38422 13.8164 2.6214 13.911C2.85858 14.0056 3.11256 14.0509 3.36782 14.0441C3.62309 14.0373 3.8743 13.9786 4.10612 13.8716C4.33795 13.7645 4.54554 13.6113 4.71622 13.4214L9.21856 8.53321C9.2761 8.47097 9.34954 8.42561 9.43095 8.40202C9.51236 8.37843 9.59867 8.37749 9.68058 8.39932C10.1219 8.52024 10.5771 8.58298 11.0347 8.58595C12.0132 8.58595 12.8719 8.26925 13.4912 7.65899C14.6382 6.52901 14.8131 4.61241 14.2567 3.53136ZM3.41515 13.1006C3.2222 13.1217 3.02747 13.0823 2.85783 12.988C2.6882 12.8937 2.55202 12.749 2.46809 12.574C2.38417 12.399 2.35663 12.2022 2.38928 12.0109C2.42194 11.8196 2.51317 11.6431 2.65039 11.5058C2.78761 11.3686 2.96406 11.2773 3.15538 11.2445C3.34669 11.2118 3.54345 11.2393 3.71849 11.3232C3.89354 11.407 4.03823 11.5431 4.13262 11.7128C4.227 11.8824 4.26641 12.0771 4.24542 12.27C4.22232 12.4823 4.12743 12.6804 3.97645 12.8314C3.82547 12.9825 3.62745 13.0774 3.41515 13.1006Z" fill="#091F8E"/>
</svg>
