<svg xmlns="http://www.w3.org/2000/svg" width="16" height="16" viewBox="0 0 16 16" fill="none">
  <path d="M14.001 9.742C12.9461 10.6133 11.6042 11.0602 10.2375 10.9953C8.87085 10.9304 7.5774 10.3585 6.60979 9.3911C5.64217 8.42373 5.06986 7.13043 5.00463 5.76375C4.93939 4.39707 5.3859 3.05514 6.25698 2H3.50098C3.10315 2 2.72162 2.15804 2.44032 2.43934C2.15901 2.72064 2.00098 3.10218 2.00098 3.5V10.497C2.00098 10.8948 2.15901 11.2764 2.44032 11.5577C2.72162 11.839 3.10315 11.997 3.50098 11.997H6.00098V13H4.49498C4.36237 13 4.23519 13.0527 4.14142 13.1464C4.04766 13.2402 3.99498 13.3674 3.99498 13.5C3.99498 13.6326 4.04766 13.7598 4.14142 13.8536C4.23519 13.9473 4.36237 14 4.49498 14H11.5C11.6326 14 11.7598 13.9473 11.8535 13.8536C11.9473 13.7598 12 13.6326 12 13.5C12 13.3674 11.9473 13.2402 11.8535 13.1464C11.7598 13.0527 11.6326 13 11.5 13H9.99998V11.997H12.501C12.8988 11.997 13.2803 11.839 13.5616 11.5577C13.8429 11.2764 14.001 10.8948 14.001 10.497V9.742ZM9.00098 13H6.99998V11.997H8.99998V13H9.00098ZM10.5 10C9.3065 10 8.16191 9.52589 7.318 8.68198C6.47408 7.83807 5.99998 6.69347 5.99998 5.5C5.99998 4.30653 6.47408 3.16193 7.318 2.31802C8.16191 1.47411 9.3065 1 10.5 1C11.6935 1 12.838 1.47411 13.682 2.31802C14.5259 3.16193 15 4.30653 15 5.5C15 6.69347 14.5259 7.83807 13.682 8.68198C12.838 9.52589 11.6935 10 10.5 10ZM12 3V3.152C11.5594 2.897 11.061 2.75863 10.552 2.75C10.1493 2.74316 9.7494 2.81747 9.37607 2.96848C9.00274 3.1195 8.66364 3.34413 8.37898 3.629C8.2879 3.7233 8.2375 3.8496 8.23864 3.9807C8.23978 4.1118 8.29236 4.23721 8.38507 4.32991C8.47777 4.42261 8.60318 4.4752 8.73428 4.47634C8.86537 4.47748 8.99168 4.42708 9.08598 4.336C9.39282 4.02917 9.79113 3.83045 10.2208 3.76985C10.6505 3.70924 11.0882 3.79002 11.468 4H11C10.8674 4 10.7402 4.05268 10.6464 4.14645C10.5527 4.24021 10.5 4.36739 10.5 4.5C10.5 4.63261 10.5527 4.75979 10.6464 4.85355C10.7402 4.94732 10.8674 5 11 5H12.5C12.6326 5 12.7598 4.94732 12.8535 4.85355C12.9473 4.75979 13 4.63261 13 4.5V3C13 2.86739 12.9473 2.74021 12.8535 2.64645C12.7598 2.55268 12.6326 2.5 12.5 2.5C12.3674 2.5 12.2402 2.55268 12.1464 2.64645C12.0527 2.74021 12 2.86739 12 3ZM10.448 8.25C10.8506 8.25684 11.2506 8.18253 11.6239 8.03152C11.9972 7.8805 12.3363 7.65586 12.621 7.371C12.7121 7.2767 12.7625 7.1504 12.7613 7.0193C12.7602 6.8882 12.7076 6.76279 12.6149 6.67009C12.5222 6.57739 12.3968 6.5248 12.2657 6.52366C12.1346 6.52252 12.0083 6.57292 11.914 6.664C11.6071 6.97083 11.2088 7.16955 10.7791 7.23015C10.3495 7.29076 9.91172 7.20998 9.53198 7H9.99998C10.1326 7 10.2598 6.94732 10.3535 6.85355C10.4473 6.75979 10.5 6.63261 10.5 6.5C10.5 6.36739 10.4473 6.24021 10.3535 6.14645C10.2598 6.05268 10.1326 6 9.99998 6H8.49998C8.36737 6 8.24019 6.05268 8.14642 6.14645C8.05265 6.24021 7.99998 6.36739 7.99998 6.5V8C7.99998 8.13261 8.05265 8.25979 8.14642 8.35355C8.24019 8.44732 8.36737 8.5 8.49998 8.5C8.63259 8.5 8.75976 8.44732 8.85353 8.35355C8.9473 8.25979 8.99998 8.13261 8.99998 8V7.848C9.44069 8.10276 9.93901 8.2411 10.448 8.25Z" fill="#8A92A6" fill-opacity="0.5"/>
</svg>