<svg width="13" height="13" viewBox="0 0 13 13" fill="none" xmlns="http://www.w3.org/2000/svg">
<path d="M12 8.742C10.9451 9.61335 9.60327 10.0602 8.23657 9.99532C6.86987 9.93044 5.57643 9.35847 4.60881 8.3911C3.64119 7.42373 3.06889 6.13043 3.00365 4.76375C2.93841 3.39707 3.38493 2.05514 4.256 1H1.5C1.10218 1 0.720644 1.15804 0.43934 1.43934C0.158035 1.72064 0 2.10218 0 2.5V9.497C0 9.89482 0.158035 10.2764 0.43934 10.5577C0.720644 10.839 1.10218 10.997 1.5 10.997H4V12H2.494C2.36139 12 2.23421 12.0527 2.14045 12.1464C2.04668 12.2402 1.994 12.3674 1.994 12.5C1.994 12.6326 2.04668 12.7598 2.14045 12.8536C2.23421 12.9473 2.36139 13 2.494 13H9.499C9.63161 13 9.75879 12.9473 9.85255 12.8536C9.94632 12.7598 9.999 12.6326 9.999 12.5C9.999 12.3674 9.94632 12.2402 9.85255 12.1464C9.75879 12.0527 9.63161 12 9.499 12H7.999V10.997H10.5C10.8978 10.997 11.2794 10.839 11.5607 10.5577C11.842 10.2764 12 9.89482 12 9.497V8.742ZM7 12H4.999V10.997H6.999V12H7ZM8.499 9C7.30553 9 6.16093 8.52589 5.31702 7.68198C4.47311 6.83807 3.999 5.69347 3.999 4.5C3.999 3.30653 4.47311 2.16193 5.31702 1.31802C6.16093 0.474106 7.30553 0 8.499 0C9.69247 0 10.8371 0.474106 11.681 1.31802C12.5249 2.16193 12.999 3.30653 12.999 4.5C12.999 5.69347 12.5249 6.83807 11.681 7.68198C10.8371 8.52589 9.69247 9 8.499 9ZM9.999 2V2.152C9.55839 1.897 9.06001 1.75863 8.551 1.75C8.14834 1.74316 7.74843 1.81747 7.3751 1.96848C7.00177 2.1195 6.66266 2.34413 6.378 2.629C6.28692 2.7233 6.23652 2.8496 6.23766 2.9807C6.2388 3.1118 6.29139 3.23721 6.38409 3.32991C6.4768 3.42261 6.6022 3.4752 6.7333 3.47634C6.8644 3.47748 6.9907 3.42708 7.085 3.336C7.39184 3.02917 7.79016 2.83045 8.21984 2.76985C8.64952 2.70924 9.08726 2.79002 9.467 3H8.999C8.86639 3 8.73921 3.05268 8.64545 3.14645C8.55168 3.24021 8.499 3.36739 8.499 3.5C8.499 3.63261 8.55168 3.75979 8.64545 3.85355C8.73921 3.94732 8.86639 4 8.999 4H10.499C10.6316 4 10.7588 3.94732 10.8526 3.85355C10.9463 3.75979 10.999 3.63261 10.999 3.5V2C10.999 1.86739 10.9463 1.74021 10.8526 1.64645C10.7588 1.55268 10.6316 1.5 10.499 1.5C10.3664 1.5 10.2392 1.55268 10.1454 1.64645C10.0517 1.74021 9.999 1.86739 9.999 2ZM8.447 7.25C8.84966 7.25684 9.24957 7.18253 9.6229 7.03152C9.99623 6.8805 10.3353 6.65586 10.62 6.371C10.7111 6.2767 10.7615 6.1504 10.7603 6.0193C10.7592 5.8882 10.7066 5.76279 10.6139 5.67009C10.5212 5.57739 10.3958 5.5248 10.2647 5.52366C10.1336 5.52252 10.0073 5.57292 9.913 5.664C9.60616 5.97083 9.20784 6.16955 8.77816 6.23015C8.34848 6.29076 7.91074 6.20998 7.531 6H7.999C8.13161 6 8.25879 5.94732 8.35255 5.85355C8.44632 5.75979 8.499 5.63261 8.499 5.5C8.499 5.36739 8.44632 5.24021 8.35255 5.14645C8.25879 5.05268 8.13161 5 7.999 5H6.499C6.36639 5 6.23921 5.05268 6.14545 5.14645C6.05168 5.24021 5.999 5.36739 5.999 5.5V7C5.999 7.13261 6.05168 7.25979 6.14545 7.35355C6.23921 7.44732 6.36639 7.5 6.499 7.5C6.63161 7.5 6.75879 7.44732 6.85255 7.35355C6.94632 7.25979 6.999 7.13261 6.999 7V6.848C7.43971 7.10276 7.93803 7.2411 8.447 7.25Z" fill="#091F8E"/>
</svg>
