<svg xmlns="http://www.w3.org/2000/svg" width="14" height="14" viewBox="0 0 14 14" fill="none">
<path d="M5.92378 8.6173L5.91853 8.60505C5.83966 8.58349 5.76146 8.55956 5.68403 8.5333L5.67819 8.53097C4.87216 8.25556 4.1725 7.73485 3.67729 7.04182C3.18207 6.34879 2.91611 5.51817 2.91669 4.66638C2.91643 3.62111 3.31704 2.61554 4.03599 1.8568C4.75494 1.09805 5.73749 0.643902 6.78126 0.587901C7.82503 0.531899 8.85053 0.878306 9.64654 1.55577C10.4425 2.23324 10.9484 3.19017 11.06 4.22947C11.0857 4.4698 10.8874 4.66638 10.6459 4.66638C10.4044 4.66638 10.2113 4.46922 10.1792 4.23005C10.1016 3.66554 9.8751 3.13187 9.52295 2.68389C9.17081 2.23592 8.70573 1.88978 8.17551 1.68107C7.64529 1.47237 7.06906 1.40861 6.50604 1.49635C5.94302 1.58409 5.41352 1.82017 4.97195 2.18033C4.53039 2.54048 4.19269 3.01172 3.99356 3.54561C3.79444 4.0795 3.74106 4.65679 3.83893 5.21814C3.9368 5.77948 4.18238 6.30465 4.55043 6.73966C4.91848 7.17466 5.39572 7.50382 5.93311 7.6933C6.04136 7.44861 6.23044 7.24856 6.46864 7.12669C6.70685 7.00482 6.97971 6.96853 7.24148 7.02391C7.50326 7.07929 7.73805 7.22296 7.90649 7.43086C8.07494 7.63875 8.1668 7.89823 8.16669 8.1658C8.16696 8.43546 8.07382 8.69688 7.90309 8.90561C7.73237 9.11434 7.49461 9.25748 7.23026 9.3107C6.96591 9.36391 6.69128 9.32391 6.45309 9.19749C6.21491 9.07108 6.02786 8.86606 5.92378 8.6173ZM5.32586 9.3348C4.63812 9.08768 4.01346 8.69169 3.49653 8.17513C3.17694 8.21231 2.88214 8.36558 2.66814 8.60583C2.45413 8.84608 2.33583 9.15656 2.33569 9.4783V10.015C2.33569 10.3486 2.43953 10.6741 2.63319 10.946C3.53269 12.2083 5.00503 12.8331 7.00003 12.8331C8.99503 12.8331 10.4679 12.2077 11.3692 10.946C11.5638 10.6739 11.6684 10.3477 11.6684 10.0132V9.47772C11.6685 9.30543 11.6347 9.13482 11.5688 8.97562C11.5029 8.81643 11.4064 8.67176 11.2846 8.54988C11.1628 8.428 11.0183 8.33131 10.8591 8.2653C10.7 8.1993 10.5294 8.16529 10.3571 8.16522H9.04169C9.04178 8.59971 8.90326 9.02291 8.64626 9.37325C8.38926 9.72359 8.0272 9.98281 7.61273 10.1132C7.19826 10.2436 6.753 10.2384 6.34171 10.0983C5.93042 9.95816 5.57455 9.69109 5.32586 9.3348ZM9.33336 4.66638C9.33372 4.32533 9.25914 3.98835 9.11489 3.6793C8.97065 3.37024 8.76026 3.09665 8.49861 2.87788C8.25598 2.67493 7.97462 2.52342 7.67163 2.43257C7.36863 2.34172 7.05033 2.31343 6.73606 2.34941C6.42179 2.3854 6.11812 2.4849 5.8435 2.64189C5.56888 2.79887 5.32905 3.01006 5.13858 3.2626C4.94811 3.51515 4.81098 3.80379 4.73552 4.11098C4.66006 4.41817 4.64785 4.7375 4.69963 5.04955C4.75141 5.36161 4.8661 5.65988 5.03673 5.92623C5.20736 6.19259 5.43036 6.42147 5.69219 6.59897C6.0588 6.292 6.52187 6.12408 7.00003 6.12472C7.49761 6.12472 7.95378 6.30263 8.30844 6.59897C8.62435 6.38527 8.88299 6.09732 9.06168 5.76037C9.24038 5.42343 9.33366 5.04778 9.33336 4.66638Z" fill="#8A92A6"/>
</svg>