<svg width="12" height="12" viewBox="0 0 12 12" fill="none" xmlns="http://www.w3.org/2000/svg">
<g clip-path="url(#clip0_1628_1970)">
<path d="M10.3144 7.99896C10.2755 7.95208 10.2373 7.90521 10.1998 7.85998C9.6842 7.2363 9.37225 6.8599 9.37225 5.09435C9.37225 4.18029 9.15358 3.43029 8.72256 2.86779C8.40475 2.45224 7.97514 2.13701 7.40889 1.90404C7.40161 1.89999 7.3951 1.89467 7.38967 1.88834C7.186 1.20631 6.62866 0.749512 6.00007 0.749512C5.37147 0.749512 4.81436 1.20631 4.61069 1.88764C4.60526 1.89374 4.59884 1.89888 4.59171 1.90287C3.2703 2.44685 2.62812 3.49053 2.62812 5.09365C2.62812 6.8599 2.31663 7.2363 1.80054 7.85927C1.76304 7.90451 1.72484 7.95044 1.68593 7.99826C1.58543 8.11946 1.52175 8.26691 1.50244 8.42317C1.48313 8.57943 1.50898 8.73795 1.57694 8.87997C1.72155 9.18466 2.02976 9.3738 2.38155 9.3738H9.62116C9.97131 9.3738 10.2774 9.1849 10.4225 8.88162C10.4907 8.73956 10.5168 8.58091 10.4977 8.42447C10.4785 8.26803 10.4149 8.12036 10.3144 7.99896V7.99896Z" fill="#718096"/>
<path d="M5.99996 11.25C6.33864 11.2497 6.67093 11.1578 6.96159 10.9839C7.25225 10.8101 7.49044 10.5608 7.65089 10.2626C7.65845 10.2483 7.66219 10.2323 7.66173 10.2161C7.66128 10.2 7.65665 10.1842 7.6483 10.1703C7.63995 10.1565 7.62816 10.145 7.61408 10.1371C7.59999 10.1292 7.58409 10.125 7.56792 10.125H4.43246C4.41627 10.1249 4.40034 10.1291 4.38622 10.137C4.37211 10.1449 4.36029 10.1564 4.35191 10.1702C4.34353 10.1841 4.33888 10.1999 4.33842 10.2161C4.33795 10.2322 4.34169 10.2483 4.34926 10.2626C4.50969 10.5608 4.74784 10.81 5.03846 10.9839C5.32907 11.1577 5.66132 11.2497 5.99996 11.25Z" fill="#718096"/>
</g>
<defs>
<clipPath id="clip0_1628_1970">
<rect width="12" height="12" fill="white"/>
</clipPath>
</defs>
</svg>
