<svg
      width="23"
      height="24"
      viewBox="0 0 23 24"
      fill="none"
      xmlns="http://www.w3.org/2000/svg"
    >
      <path
        d="M7.96075 20.4375C8.7374 20.4375 9.367 19.8079 9.367 19.0312C9.367 18.2546 8.7374 17.625 7.96075 17.625C7.1841 17.625 6.5545 18.2546 6.5545 19.0312C6.5545 19.8079 7.1841 20.4375 7.96075 20.4375Z"
        fill="white"
      />
      <path
        d="M17.8046 20.4375C18.5812 20.4375 19.2108 19.8079 19.2108 19.0312C19.2108 18.2546 18.5812 17.625 17.8046 17.625C17.0279 17.625 16.3983 18.2546 16.3983 19.0312C16.3983 19.8079 17.0279 20.4375 17.8046 20.4375Z"
        fill="white"
      />
      <path
        d="M20.3007 6.05771C20.2019 5.93689 20.0774 5.83957 19.9363 5.77283C19.7953 5.70609 19.6411 5.67161 19.485 5.67187H6.11028L5.84089 4.14346C5.81217 3.98065 5.727 3.83317 5.60034 3.72693C5.47368 3.62068 5.31363 3.56247 5.14831 3.5625H2.33582C2.14933 3.5625 1.97049 3.63658 1.83863 3.76844C1.70677 3.9003 1.63269 4.07914 1.63269 4.26562C1.63269 4.45211 1.70677 4.63095 1.83863 4.76281C1.97049 4.89467 2.14933 4.96875 2.33582 4.96875H4.55857L6.56511 16.3409C6.59383 16.5037 6.67901 16.6512 6.80567 16.7574C6.93232 16.8637 7.09237 16.9219 7.25769 16.9219H18.5077C18.6942 16.9219 18.873 16.8478 19.0049 16.7159C19.1367 16.5841 19.2108 16.4052 19.2108 16.2187C19.2108 16.0323 19.1367 15.8534 19.0049 15.7216C18.873 15.5897 18.6942 15.5156 18.5077 15.5156H7.84743L7.59958 14.1094H18.2194C18.4632 14.1091 18.6995 14.0245 18.8882 13.87C19.0768 13.7156 19.2063 13.5007 19.2548 13.2617L20.5204 6.93354C20.5509 6.7804 20.547 6.62239 20.509 6.47092C20.471 6.31946 20.3998 6.17833 20.3007 6.05771Z"
        fill="white"
      />
    </svg>