 <svg
      width="23"
      height="24"
      viewBox="0 0 23 24"
      fill="none"
      xmlns="http://www.w3.org/2000/svg"
    >
      <path
        d="M12.9065 10.6055H19.0588C19.1023 10.6055 19.1441 10.6228 19.1748 10.6535C19.2056 10.6843 19.2229 10.726 19.2229 10.7695V19.0312C19.2229 19.7741 18.9278 20.4864 18.4026 21.0117C17.8773 21.5369 17.1649 21.832 16.4221 21.832H6.57837C5.83556 21.832 5.12317 21.5369 4.59792 21.0117C4.07267 20.4864 3.77759 19.7741 3.77759 19.0312V4.96875C3.77759 4.22594 4.07267 3.51355 4.59792 2.9883C5.12317 2.46305 5.83556 2.16797 6.57837 2.16797H10.6213C10.6648 2.16797 10.7066 2.18525 10.7373 2.21602C10.7681 2.24679 10.7854 2.28852 10.7854 2.33203V8.48437C10.7854 9.04692 11.0089 9.58643 11.4067 9.98421C11.8044 10.382 12.3439 10.6055 12.9065 10.6055ZM7.98462 17.6367H15.0159C15.2055 17.6367 15.3873 17.5614 15.5213 17.4273C15.6554 17.2933 15.7307 17.1115 15.7307 16.9219C15.7307 16.7323 15.6554 16.5505 15.5213 16.4164C15.3873 16.2823 15.2055 16.207 15.0159 16.207H7.98462C7.79503 16.207 7.61321 16.2823 7.47915 16.4164C7.34509 16.5505 7.26978 16.7323 7.26978 16.9219C7.26978 17.1115 7.34509 17.2933 7.47915 17.4273C7.61321 17.5614 7.79503 17.6367 7.98462 17.6367ZM7.98462 14.1211H15.0159C15.2055 14.1211 15.3873 14.0458 15.5213 13.9117C15.6554 13.7777 15.7307 13.5958 15.7307 13.4062C15.7307 13.2167 15.6554 13.0348 15.5213 12.9008C15.3873 12.7667 15.2055 12.6914 15.0159 12.6914H7.98462C7.79503 12.6914 7.61321 12.7667 7.47915 12.9008C7.34509 13.0348 7.26978 13.2167 7.26978 13.4062C7.26978 13.5958 7.34509 13.7777 7.47915 13.9117C7.61321 14.0458 7.79503 14.1211 7.98462 14.1211Z"
        fill="white"
        stroke="#091F8E"
        stroke-width="0.0234375"
      />
      <path
        d="M12.3449 2.72723L18.6646 9.04696L12.3449 2.72723ZM12.3449 2.72723C12.3449 2.72722 12.3449 2.72722 12.3449 2.72722M12.3449 2.72723L12.3449 2.72722M12.3449 2.72722C12.3342 2.71663 12.3207 2.70944 12.306 2.70652C12.2912 2.70361 12.276 2.70512 12.2621 2.71086C12.2482 2.7166 12.2363 2.72631 12.228 2.73878C12.2196 2.75124 12.2151 2.7659 12.215 2.78091V8.48542C12.215 8.6688 12.2879 8.84466 12.4175 8.97432C12.5472 9.10398 12.7231 9.17683 12.9064 9.17683H18.6109C18.6259 9.17677 18.6406 9.17226 18.6531 9.16389C18.6655 9.15552 18.6753 9.14364 18.681 9.12976C18.6867 9.11588 18.6882 9.10062 18.6853 9.08589C18.6824 9.07116 18.6752 9.05763 18.6647 9.04698L12.3449 2.72722Z"
        fill="white"
        stroke="#091F8E"
        stroke-width="0.0234375"
      />
    </svg>