<svg width="21" height="21" viewBox="0 0 21 21" fill="none" xmlns="http://www.w3.org/2000/svg">
<path d="M18.8013 4.82625C18.7551 4.73654 18.6885 4.65898 18.6067 4.59991C18.5249 4.54083 18.4303 4.5019 18.3307 4.48629C18.231 4.47068 18.1291 4.47883 18.0331 4.51008C17.9372 4.54132 17.85 4.59478 17.7787 4.6661L15.3187 7.1277C15.1979 7.24671 15.0352 7.31342 14.8656 7.31342C14.6961 7.31342 14.5334 7.24671 14.4126 7.1277L13.3492 6.06266C13.2897 6.00317 13.2425 5.93254 13.2103 5.85481C13.178 5.77707 13.1615 5.69376 13.1615 5.60962C13.1615 5.52548 13.178 5.44216 13.2103 5.36443C13.2425 5.28669 13.2897 5.21607 13.3492 5.15658L15.7987 2.70659C15.8722 2.63316 15.9267 2.54299 15.9575 2.44383C15.9884 2.34467 15.9946 2.2395 15.9758 2.13738C15.957 2.03526 15.9136 1.93925 15.8494 1.85762C15.7852 1.77598 15.7022 1.71117 15.6074 1.66877V1.66877C13.7572 0.841567 11.4477 1.27319 9.99149 2.7186C8.75428 3.947 8.38552 5.86647 8.9805 7.98493C9.01258 8.09791 9.01276 8.21755 8.98103 8.33062C8.9493 8.44369 8.8869 8.54577 8.80073 8.62556L2.13503 14.7135C1.87535 14.9466 1.66589 15.2303 1.51943 15.547C1.37297 15.8638 1.29258 16.2071 1.28316 16.5559C1.27374 16.9048 1.33549 17.2519 1.46464 17.5761C1.5938 17.9003 1.78764 18.1948 2.03436 18.4417C2.28107 18.6885 2.57549 18.8825 2.89964 19.0118C3.22379 19.141 3.57089 19.203 3.91975 19.1937C4.26861 19.1844 4.61193 19.1042 4.92876 18.9579C5.24559 18.8115 5.5293 18.6022 5.76256 18.3426L11.9158 11.6621C11.9944 11.5771 12.0948 11.5151 12.206 11.4828C12.3173 11.4506 12.4352 11.4493 12.5472 11.4791C13.1503 11.6444 13.7724 11.7301 14.3978 11.7342C15.7351 11.7342 16.9086 11.3014 17.7551 10.4674C19.3226 8.92305 19.5616 6.30369 18.8013 4.82625ZM3.98443 17.9042C3.72073 17.933 3.4546 17.8792 3.22276 17.7503C2.99093 17.6214 2.80482 17.4237 2.69012 17.1845C2.57542 16.9453 2.53779 16.6765 2.58241 16.415C2.62704 16.1535 2.75172 15.9123 2.93926 15.7247C3.1268 15.5371 3.36794 15.4123 3.62941 15.3676C3.89088 15.3229 4.15978 15.3604 4.399 15.475C4.63823 15.5897 4.83598 15.7757 4.96497 16.0075C5.09396 16.2393 5.14783 16.5054 5.11914 16.7691C5.08757 17.0593 4.95788 17.3299 4.75154 17.5363C4.5452 17.7428 4.27457 17.8725 3.98443 17.9042V17.9042Z" fill="white"/>
</svg>
