<svg
      width="23"
      height="24"
      viewBox="0 0 23 24"
      fill="none"
      xmlns="http://www.w3.org/2000/svg"
    >
      <path
        d="M4.4945 5.31853H18.557C18.7213 5.31845 18.8854 5.32888 19.0483 5.34973C18.9931 4.96203 18.8599 4.58954 18.6568 4.2547C18.4537 3.91986 18.185 3.62961 17.8667 3.40146C17.5484 3.17331 17.1872 3.01198 16.8049 2.92719C16.4225 2.84241 16.027 2.83592 15.6421 2.90813L4.07702 4.88259H4.06384C3.33789 5.02142 2.69233 5.43214 2.259 6.03088C2.91185 5.56652 3.69335 5.3175 4.4945 5.31853V5.31853Z"
        fill="white"
      />
      <path
        d="M18.5572 6.375H4.49466C3.74899 6.37581 3.03409 6.67239 2.50682 7.19966C1.97955 7.72693 1.68297 8.44183 1.68216 9.1875V17.625C1.68297 18.3707 1.97955 19.0856 2.50682 19.6128C3.03409 20.1401 3.74899 20.4367 4.49466 20.4375H18.5572C19.3028 20.4367 20.0177 20.1401 20.545 19.6128C21.0723 19.0856 21.3688 18.3707 21.3697 17.625V9.1875C21.3688 8.44183 21.0723 7.72693 20.545 7.19966C20.0177 6.67239 19.3028 6.37581 18.5572 6.375V6.375ZM16.4698 14.8125C16.1916 14.8125 15.9197 14.73 15.6885 14.5755C15.4572 14.421 15.277 14.2014 15.1705 13.9444C15.0641 13.6874 15.0363 13.4047 15.0905 13.1319C15.1448 12.8591 15.2787 12.6085 15.4754 12.4119C15.6721 12.2152 15.9226 12.0813 16.1954 12.027C16.4682 11.9728 16.7509 12.0006 17.0079 12.107C17.2649 12.2135 17.4845 12.3937 17.639 12.625C17.7935 12.8562 17.876 13.1281 17.876 13.4062C17.876 13.7792 17.7278 14.1369 17.4641 14.4006C17.2004 14.6643 16.8427 14.8125 16.4698 14.8125Z"
        fill="white"
      />
      <path
        d="M1.70405 12.1514V7.77881C1.70405 6.82651 2.23139 5.22998 4.06171 4.88413C5.61518 4.59277 7.15327 4.59277 7.15327 4.59277C7.15327 4.59277 8.16401 5.2959 7.32905 5.2959C6.49409 5.2959 6.51606 6.37256 7.32905 6.37256C8.14204 6.37256 7.32905 7.40527 7.32905 7.40527L4.05512 11.1187L1.70405 12.1514Z"
        fill="white"
      />
    </svg>