<svg width="28" height="21" viewBox="0 0 28 21" fill="none" xmlns="http://www.w3.org/2000/svg">
<path d="M19.6293 15.3459L16.8728 12.5894C17.5365 11.7059 17.8947 10.6305 17.8935 9.52549C17.8935 6.70303 15.5972 4.40674 12.7748 4.40674C9.95229 4.40674 7.65601 6.70303 7.65601 9.52549C7.65601 12.3479 9.95229 14.6442 12.7748 14.6442C13.8797 14.6454 14.9551 14.2872 15.8386 13.6235L18.5952 16.3801C18.7347 16.5048 18.9167 16.5714 19.1038 16.5662C19.2909 16.5609 19.4688 16.4843 19.6012 16.3519C19.7335 16.2196 19.8102 16.0416 19.8154 15.8545C19.8207 15.6674 19.7541 15.4854 19.6293 15.3459ZM9.11851 9.52549C9.11851 8.80235 9.33294 8.09545 9.73469 7.49418C10.1364 6.89292 10.7075 6.42429 11.3756 6.14755C12.0437 5.87082 12.7788 5.79841 13.4881 5.93949C14.1973 6.08057 14.8488 6.42879 15.3601 6.94013C15.8714 7.45146 16.2197 8.10294 16.3607 8.81219C16.5018 9.52143 16.4294 10.2566 16.1527 10.9247C15.876 11.5928 15.4073 12.1638 14.8061 12.5655C14.2048 12.9673 13.4979 13.1817 12.7748 13.1817C11.8054 13.1806 10.8761 12.795 10.1907 12.1096C9.50525 11.4241 9.11967 10.4948 9.11851 9.52549Z" fill="#2D3748"/>
</svg>
