<svg width="36" height="73" viewBox="0 0 36 73" fill="none" xmlns="http://www.w3.org/2000/svg">
<g id="Group 10">
<path id="Union" fill-rule="evenodd" clip-rule="evenodd" d="M0 0.987007L15.9028 10.2067V20.4509L8.97581 16.4995V26.4998L17.8541 31.6218L8.97581 36.8415L0 31.6706V0.987007ZM13.4637 57.281L26.3908 49.4271L26.3994 49.4423C26.4118 49.4158 26.4238 49.3892 26.4354 49.3623C26.6548 48.8518 26.7075 48.2884 26.587 47.7432C26.4665 47.1979 26.1781 46.6954 25.7583 46.2992L32.3022 40.1215C34.0428 41.7645 35.2386 43.8481 35.7383 46.1087C36.238 48.3694 36.0192 50.7056 35.1095 52.822C34.2642 54.7885 32.8577 56.4832 31.0482 57.7231L31.0739 57.7688L13.4637 67.7202V57.281Z" fill="#6A8F9F"/>
<path id="Union_2" fill-rule="evenodd" clip-rule="evenodd" d="M18.2917 11.2824L18.2631 22.0151L26.8066 26.9609C26.8316 27.0812 26.8489 27.2032 26.8583 27.3262C26.9088 27.9893 26.726 28.6451 26.3381 29.1915C26.0624 29.58 25.694 29.8977 25.265 30.1218C24.8567 30.2222 24.4558 30.3826 24.0745 30.606L2.21694 43.4153C0.619394 44.3516 -0.179571 46.1287 0.052632 47.8558C0.017976 48.0819 0 48.3134 0 48.5491V67.4763C0 69.9819 2.03114 72.013 4.53669 72.013C7.04223 72.013 9.07337 69.9819 9.07337 67.4763V49.7275L28.5808 38.2955C28.6585 38.2499 28.7343 38.2024 28.8082 38.153C30.8959 37.2908 32.683 35.8863 33.9579 34.0902C35.4569 31.9783 36.1637 29.4435 35.9682 26.8806C35.7728 24.3177 34.686 21.8706 32.8772 19.9205C32.6894 19.7181 32.4949 19.5221 32.2941 19.3329C31.9809 18.9002 31.5686 18.5285 31.0677 18.2551L30.6558 18.0303C30.0258 17.6098 29.3569 17.2447 28.6576 16.9397L18.2917 11.2824Z" fill="#091F8E"/>
</g>
</svg>
